# xmcd
#
# Track frame offsets: 
#        150
#        3368
#        22813
#        42929
#        83049
#        130041
#        160424
#        219907
#
# Disc length: 3568 seconds
#
# Revision: 0
# Processed by: cddbd v1.5.2PL0 Copyright (c) Steve Scherf et al.
# Submitted via: ExactAudioCopy v0.95b3
#
DISCID=540dee08
DTITLE=Jimi Hendrix  - Rockin' The USA Vol.2 -  Disc 1
DYEAR=1900
DGENRE=
TTITLE0=Intro
TTITLE1=Fire
TTITLE2=Hey Joe
TTITLE3=Spanish Castle Magic
TTITLE4=Hear My Train A Comin'
TTITLE5=Sunshine Of Your Love
TTITLE6=Red House
TTITLE7=Foxy Lady
EXTD=
EXTT0=
EXTT1=
EXTT2=
EXTT3=
EXTT4=
EXTT5=
EXTT6=
EXTT7=
PLAYORDER=
